# xmcd
#
# Track frame offsets:
# 150
# 17479
# 33922
# 48162
# 69839
# 88756
# 111314
# 137616
# 157793
# 179083
# 200253
# 214552
# 230362
# 245949
# 271980
#
# Disc length: 3978 seconds
#
#
# Revision: 0
# Processed by: cddbd v1.5.2PL0 Copyright (c) Steve Scherf et al.
# Submitted via: FreeRIP 2.951 
#
DISCID=c60f880f
DTITLE=Michael Morpurgo - Kensuke's Kingdom
DYEAR=2003
DGENRE=Speech
TTITLE0=Chapter 16
TTITLE1=Chapter 17
TTITLE2=Chapter 18
TTITLE3=Chapter 19
TTITLE4=Chapter 20
TTITLE5=Chapter 21
TTITLE6=Chapter 22
TTITLE7=Chapter 23
TTITLE8=Chapter 24
TTITLE9=Chapter 25
TTITLE10=Chapter 26
TTITLE11=Chapter 27
TTITLE12=Chapter 28
TTITLE13=Chapter 29
TTITLE14=Chapter 30
EXTD=CD 2 of 3\nRead by Derej Jacobi\n2003
EXTT0=
EXTT1=
EXTT2=
EXTT3=
EXTT4=
EXTT5=
EXTT6=
EXTT7=
EXTT8=
EXTT9=
EXTT10=
EXTT11=
EXTT12=
EXTT13=
EXTT14=
PLAYORDER=
